<svg width="103" height="103" viewBox="0 0 103 103" fill="none" xmlns="http://www.w3.org/2000/svg">
<g clip-path="url(#clip0_4_8)">
<path d="M90.125 0H12.875C5.76433 0 0 5.76433 0 12.875V90.125C0 97.2357 5.76433 103 12.875 103H90.125C97.2357 103 103 97.2357 103 90.125V12.875C103 5.76433 97.2357 0 90.125 0Z" fill="#494BD6"/>
<path d="M39.5714 81.0635H23V23H36.8095L63.5079 50.1587V46.4126L68.1111 42.6666V62.3332L34.9683 27.9532H27.6032V76.381H34.9683V38.9208L70.873 76.381H81V81.0635H69.0317L39.5714 51.0953V81.0635Z" fill="white"/>
<path d="M76.4127 32.3016V76.1862H80.7513L80.0952 22L58 38.8571L61.6825 42.6031L76.4127 32.3016Z" fill="white" stroke="white" stroke-width="0.5"/>
</g>
<defs>
<clipPath id="clip0_4_8">
<rect width="103" height="103" fill="white"/>
</clipPath>
</defs>
</svg>
